<?xml version="1.0" encoding="utf-8"?>
<!-- Generator: Adobe Illustrator 16.0.0, SVG Export Plug-In . SVG Version: 6.00 Build 0)  -->
<!DOCTYPE svg PUBLIC "-//W3C//DTD SVG 1.1//EN" "http://www.w3.org/Graphics/SVG/1.1/DTD/svg11.dtd">
<svg version="1.1" id="Layer_1" xmlns="http://www.w3.org/2000/svg" xmlns:xlink="http://www.w3.org/1999/xlink" x="0px" y="0px"
	 width="350px" height="84px" viewBox="0 0 350 84" enable-background="new 0 0 350 84" xml:space="preserve">
<g enable-background="new    ">
	<path fill="#4AB19A" d="M15.039,11.563l-0.122,0.061c-0.061,0-0.117-0.361-0.168-1.086s-0.076-1.699-0.076-2.924
		c0-0.246,0.111-0.571,0.335-0.973c0.224-0.402,0.6-0.83,1.129-1.283c0.529-0.453,1.225-0.906,2.09-1.36
		c0.864-0.452,1.953-0.865,3.265-1.235c1.312-0.371,2.855-0.67,4.631-0.897c1.775-0.227,3.83-0.34,6.165-0.34
		c2.014,0,3.585,0.099,4.714,0.294c1.128,0.196,1.978,0.453,2.547,0.772c0.569,0.319,0.92,0.69,1.053,1.113
		c0.132,0.422,0.198,0.85,0.198,1.282c0,0.453-0.051,0.896-0.153,1.329c-0.102,0.433-0.366,0.819-0.793,1.159
		s-1.068,0.613-1.922,0.819c-0.854,0.206-2.024,0.309-3.508,0.309c-0.671,0-1.343-0.03-2.014-0.091
		c-0.57,2.155-1.062,4.128-1.475,5.917c-0.414,1.789-0.794,3.437-1.142,4.942c-0.348,1.507-0.675,2.922-0.981,4.246
		c-0.306,1.324-0.614,2.658-0.925,4.003c-0.311,1.345-0.634,2.755-0.972,4.231c-0.338,1.478-0.723,3.067-1.155,4.771
		c-0.433,1.705-0.917,3.616-1.455,5.734c-0.537,2.118-1.149,4.535-1.837,7.251c0.122,0,0.401,0.02,0.839,0.06
		c0.437,0.04,0.94,0.11,1.51,0.211c0.569,0.1,1.175,0.229,1.815,0.39s1.225,0.36,1.754,0.601c0.528,0.24,0.966,0.521,1.312,0.841
		s0.519,0.69,0.519,1.11c0,0.842-0.732,1.662-2.197,2.463c-0.427,0-1.114,0-2.06,0s-2.059,0-3.338,0s-2.659,0-4.139,0
		c-1.48,0-2.961,0.005-4.443,0.015c-1.481,0.011-2.919,0.011-4.312,0c-1.394-0.01-2.619-0.021-3.677-0.029
		c-1.057-0.011-1.907-0.025-2.547-0.046c-0.641-0.02-0.961-0.05-0.961-0.09c0-0.061,0.097-0.155,0.29-0.285
		c0.194-0.131,0.412-0.311,0.656-0.541c0.244-0.23,0.478-0.516,0.702-0.856c0.224-0.34,0.366-0.761,0.427-1.262
		c0.041-0.34,0.386-0.665,1.037-0.976s1.434-0.591,2.349-0.842c0.916-0.25,1.887-0.455,2.914-0.615s1.938-0.271,2.731-0.331
		c0.682-2.664,1.363-5.322,2.043-7.977c0.68-2.654,1.311-5.329,1.895-8.024c0.583-2.695,1.194-5.211,1.832-7.546
		c0.638-2.334,1.253-4.529,1.847-6.584s1.112-3.95,1.558-5.686c0.445-1.735,0.9-3.231,1.367-4.486
		c-0.751,0.081-1.412,0.162-1.981,0.243c-0.57,0.082-1.079,0.174-1.526,0.275s-0.869,0.213-1.266,0.335
		c-0.396,0.122-0.809,0.26-1.235,0.412c-0.427,0.152-0.89,0.325-1.388,0.519C16.295,11.1,15.71,11.318,15.039,11.563z"/>
	<path fill="#4AB19A" d="M35.806,44.422c-0.065-1.526-0.128-2.854-0.189-3.982c-0.061-1.128-0.117-2.15-0.168-3.065
		c-0.051-0.916-0.086-1.76-0.106-2.532c-0.021-0.773-0.031-1.566-0.031-2.38c0-2.705,0.103-4.643,0.308-5.813
		c0.205-1.169,0.653-1.805,1.345-1.907l3.889-0.579l0.291-0.062c0.086,0,0.195,0,0.324,0c0.521,0,0.922,0.204,1.206,0.61
		c0.283,0.407,0.433,0.875,0.448,1.403l-0.58,20.229l0.208-0.03l8.329-20.351c0.061-0.284,0.193-0.559,0.396-0.823
		c0.203-0.265,0.468-0.493,0.793-0.687c0.325-0.193,0.687-0.352,1.083-0.474s0.818-0.183,1.266-0.183
		c1.179,0,2.125,0.239,2.837,0.717c0.712,0.479,1.068,1.094,1.068,1.846c0,0.57-0.082,1.109-0.244,1.617
		c-0.163,0.631-0.366,1.19-0.61,1.678c-0.529,1.038-0.854,1.699-0.976,1.983c-0.916,2.197-1.434,3.468-1.556,3.813
		c-0.122,0.366-0.244,0.743-0.366,1.129c-0.102,0.347-0.188,0.738-0.259,1.175c-0.071,0.438-0.106,0.891-0.106,1.357
		c0,0.488,0.061,0.967,0.183,1.435s0.336,0.89,0.641,1.266c0.305,0.377,0.722,0.677,1.25,0.9s1.21,0.336,2.044,0.336
		c0.61,0,1.316-0.157,2.121-0.474c0.803-0.314,1.561-0.676,2.273-1.083c0.833-0.468,1.688-0.996,2.563-1.586v7.17
		c-1.342,0.854-2.73,1.535-4.165,2.044s-2.802,0.763-4.104,0.763c-1.098,0-2.08-0.168-2.944-0.504
		c-0.865-0.335-1.597-0.788-2.197-1.357s-1.067-1.21-1.403-1.922c-0.335-0.712-0.514-1.454-0.534-2.228
		c-0.59,1.221-1.262,2.472-2.014,3.753c-0.753,1.281-1.531,2.44-2.334,3.479c-0.804,1.037-1.599,1.887-2.387,2.547
		c-0.788,0.661-1.507,0.992-2.159,0.992c-1.259,0-2.235-0.301-2.929-0.9c-0.694-0.6-1.209-1.357-1.545-2.273
		c-0.336-0.915-0.554-1.911-0.651-2.989s-0.179-2.105-0.244-3.082L35.806,44.422z"/>
	<path fill="#4AB19A" d="M94.132,46.746c-0.468,0.658-1.093,1.43-1.876,2.313c-0.783,0.885-1.663,1.729-2.639,2.53
		c-0.977,0.803-2.024,1.481-3.143,2.036c-1.119,0.556-2.238,0.833-3.356,0.833c-1.351,0-2.478-0.428-3.38-1.283
		c-0.903-0.855-1.682-2.099-2.337-3.729c-0.493,0.563-1.098,1.137-1.815,1.721c-0.718,0.584-1.502,1.112-2.353,1.586
		c-0.851,0.473-1.738,0.86-2.661,1.162s-1.845,0.452-2.768,0.452c-0.976,0-1.927-0.199-2.853-0.6
		c-0.926-0.4-1.744-0.975-2.456-1.724s-1.281-1.662-1.708-2.739s-0.641-2.293-0.641-3.647c0-1.52,0.214-3.081,0.645-4.682
		c0.43-1.602,1.095-3.334,1.995-5.199c0.9-1.864,1.867-3.476,2.9-4.834c1.033-1.357,2.163-2.543,3.391-3.557
		c1.228-1.014,2.522-1.819,3.882-2.417c1.361-0.598,2.747-0.897,4.159-0.897c0.47,0,0.839,0.093,1.105,0.277
		c0.266,0.186,0.486,0.396,0.66,0.633c0.173,0.236,0.342,0.467,0.506,0.693c0.164,0.226,0.368,0.391,0.614,0.493
		c0.245,0.103,0.496,0.17,0.752,0.2c0.255,0.031,0.517,0.046,0.783,0.046c0.225,0,0.455-0.004,0.69-0.015s0.466-0.016,0.69-0.016
		c0.307,0,0.594,0.03,0.86,0.092c0.266,0.063,0.501,0.196,0.705,0.401c0.204,0.206,0.362,0.493,0.474,0.863s0.168,0.874,0.168,1.511
		c0,0.973-0.102,2.051-0.305,3.236c-0.204,1.185-0.437,2.399-0.699,3.643c-0.263,1.243-0.562,2.661-0.898,4.253
		c-0.335,1.592-0.503,2.934-0.503,4.023c0,0.933,0.086,1.661,0.259,2.187s0.544,0.788,1.114,0.788c0.427,0,0.875-0.105,1.342-0.317
		s0.941-0.488,1.419-0.831c0.478-0.343,0.956-0.731,1.434-1.165c0.478-0.434,0.93-0.883,1.357-1.347
		c0.997-1.088,2.003-2.318,3.021-3.689L94.132,46.746z M67.957,44.356c0,0.524,0.035,1.033,0.107,1.526
		c0.071,0.493,0.199,0.934,0.382,1.321c0.183,0.388,0.427,0.702,0.733,0.943c0.306,0.242,0.693,0.362,1.161,0.362
		c0.754,0,1.437-0.327,2.048-0.983c0.611-0.654,1.141-1.443,1.589-2.364c0.448-0.922,0.81-1.874,1.085-2.856
		c0.275-0.983,0.453-1.803,0.535-2.458l2.275-9.918c-0.834,0-1.647,0.206-2.44,0.62c-0.793,0.413-1.541,0.973-2.243,1.678
		c-0.702,0.706-1.348,1.513-1.938,2.42s-1.17,2.026-1.739,3.357c-0.57,1.331-0.972,2.5-1.206,3.508
		C68.074,42.521,67.957,43.469,67.957,44.356z"/>
	<path fill="#4AB19A" d="M91.694,47.93c0-1.342,0.081-2.893,0.244-4.652c0.163-1.759,0.366-3.691,0.61-5.797
		c0.244-2.105,0.519-4.002,0.824-5.69c0.305-1.688,0.6-3.132,0.885-4.332c0.224-0.936,0.656-1.719,1.296-2.35
		c0.641-0.63,1.51-0.945,2.609-0.945c1.098,0,1.861,0.336,2.288,1.007s0.641,1.566,0.641,2.685c0,0.306-0.03,0.717-0.091,1.235
		c-0.061,0.52-0.138,1.089-0.229,1.709c-0.091,0.621-0.188,1.262-0.29,1.922c-0.102,0.661-0.198,1.414-0.29,2.258
		c-0.092,0.845-0.168,1.476-0.229,1.892c-0.061,0.417-0.091,0.697-0.091,0.839h0.61c0.122-0.224,0.315-0.584,0.58-1.083
		c0.264-0.498,0.569-1.215,0.915-2.15c0.346-0.936,0.717-1.765,1.114-2.487c0.396-0.722,0.768-1.413,1.113-2.074
		s0.661-1.246,0.946-1.754c0.285-0.509,0.499-0.885,0.641-1.129c0.65-1.099,1.393-1.851,2.227-2.258
		c0.834-0.407,1.759-0.61,2.776-0.61c1.017,0,1.825,0.427,2.425,1.281s0.9,2.034,0.9,3.539c0,0.225-0.046,0.601-0.137,1.129
		c-0.092,0.529-0.209,1.159-0.351,1.892c-0.143,0.732-0.3,1.678-0.473,2.838c-0.173,1.159-0.331,2.196-0.473,3.111
		c-0.143,0.916-0.259,1.821-0.351,2.716c-0.091,0.896-0.137,1.719-0.137,2.471c0,1.262,0.157,2.299,0.473,3.112
		c0.315,0.813,0.809,1.221,1.479,1.221c0.244,0,0.59-0.092,1.038-0.274c0.671-0.244,1.098-0.458,1.281-0.641
		c0.895-0.691,1.362-1.027,1.403-1.007c0.061,0.021,0.742-0.387,2.044-1.221c1.627-1.037,3.569-2.309,5.827-3.813l-0.03,6.834
		l-1.525,1.159c-0.122,0.102-1.079,0.631-2.868,1.587c-2.583,1.383-4.2,2.217-4.851,2.501c-1.586,0.713-2.573,1.119-2.959,1.221
		c-1.017,0.326-2.085,0.488-3.204,0.488s-2.059-0.809-2.822-2.426c-0.763-1.617-1.144-3.981-1.144-7.094
		c0-1.22,0.081-2.536,0.244-3.95c0.163-1.414,0.366-2.934,0.61-4.562h-0.488l-7.994,15.865c-0.427,0.854-0.885,1.424-1.373,1.708
		c-0.509,0.306-1.099,0.458-1.77,0.458c-0.834,0-1.505-0.178-2.014-0.534c-0.508-0.355-0.9-0.834-1.174-1.434
		s-0.458-1.281-0.549-2.044C91.74,49.532,91.694,48.744,91.694,47.93z"/>
	<path fill="#4AB19A" d="M150.646,1.342c3.326,0,6.285,0.273,8.876,0.82c2.592,0.548,4.862,1.308,6.811,2.28
		s3.596,2.133,4.943,3.479c1.347,1.348,2.438,2.817,3.275,4.407c0.836,1.591,1.444,3.278,1.821,5.062
		c0.379,1.782,0.566,3.606,0.566,5.471c0,2.568-0.285,5.352-0.856,8.349s-1.398,5.729-2.479,8.196
		c-1.082,2.467-2.413,4.781-3.995,6.942c-1.581,2.161-3.392,4.047-5.432,5.657c-2.04,1.611-4.285,2.88-6.733,3.808
		c-2.449,0.928-5.091,1.392-7.927,1.392c-0.947,0-1.913-0.073-2.9-0.218c-0.987-0.146-1.944-0.344-2.87-0.592
		c-0.927-0.25-1.803-0.53-2.628-0.842s-1.551-0.634-2.175-0.966c-0.262-0.083-0.469-0.182-0.619-0.296
		c-0.151-0.114-0.267-0.249-0.348-0.405c-0.081-0.155-0.131-0.348-0.151-0.576s-0.03-0.52-0.03-0.873
		c0-3.373,0.085-6.828,0.255-10.364c0.17-3.536,0.518-7.169,1.041-10.898s1.279-7.021,2.266-9.877
		c0.987-2.856,2.295-5.493,3.927-7.911c0.402-0.59,1.701-0.884,3.896-0.884c1.731,0,2.974,0.629,3.727,1.889
		c-0.937,1.259-1.721,2.661-2.353,4.204c-0.631,1.544-1.161,3.063-1.588,4.555c-0.428,1.493-0.784,3.123-1.069,4.891
		c-0.55,3.412-0.814,5.138-0.794,5.179c0.061,0.041-0.174,1.99-0.703,5.85c-0.204,1.341-0.362,2.509-0.474,3.504
		s-0.193,1.869-0.244,2.62s-0.076,1.482-0.076,2.193c0,0.751,0.025,1.381,0.076,1.889s0.173,0.914,0.367,1.219
		s0.489,0.523,0.886,0.655s0.932,0.198,1.604,0.198c2.037,0,3.971-0.401,5.804-1.204c1.833-0.802,3.523-1.878,5.071-3.229
		c1.547-1.351,2.938-2.919,4.17-4.707c1.232-1.787,2.28-3.854,3.146-6.199c0.866-2.347,1.533-4.55,2.001-6.611
		c0.468-2.062,0.703-4.047,0.703-5.957c0-2.355-0.387-4.463-1.161-6.321c-0.774-1.858-1.859-3.433-3.254-4.723
		c-1.395-1.289-3.07-2.274-5.025-2.955s-4.104-1.021-6.446-1.021c-1.71,0-3.405,0.103-5.083,0.307s-3.234,0.521-4.668,0.95
		c-1.434,0.43-2.695,0.976-3.783,1.641c-1.088,0.664-1.907,1.456-2.456,2.376c-1.485,2.31-2.706,4.093-3.661,5.351
		c-0.956,1.257-1.759,1.885-2.411,1.885c-0.895,0-1.342-1.026-1.342-3.081c0-1.993,0.259-3.783,0.778-5.37
		c0.519-1.586,1.241-2.994,2.166-4.226c0.925-1.23,2.023-2.277,3.295-3.143c1.271-0.864,2.665-1.576,4.18-2.136
		c1.515-0.559,3.127-0.971,4.835-1.235C147.106,1.475,148.855,1.342,150.646,1.342z"/>
	<path fill="#4AB19A" d="M193.746,39.234c-0.588,2.218-1.281,4.246-2.082,6.087c-0.799,1.841-1.654,3.428-2.565,4.76
		s-1.853,2.37-2.825,3.112c-0.972,0.742-1.923,1.113-2.854,1.113c-1.539,0-2.668-1.169-3.388-3.509
		c-0.72-2.339-1.08-5.797-1.08-10.373c0-2.266,0-4.266,0-6.001c0-1.734,0.01-3.469,0.031-5.204c0.02-1.734,0.019-2.292-0.004-1.672
		c-0.021,0.62-0.041,1.192-0.061,1.716c-0.004,0.128-0.012,0.349-0.023,0.662s0.066,0.158,0.23-0.464
		c0.166-0.623,0.386-1.271,0.66-1.943c0.275-0.674,0.628-1.286,1.057-1.839c0.43-0.552,0.936-1.009,1.519-1.371
		c0.583-0.361,1.282-0.542,2.097-0.542l0.793,0.061c0.967,0,1.71,0.177,2.227,0.529c0.518,0.353,0.777,0.822,0.777,1.406
		l-2.469,17.743l0.398-0.025c0.898-2.075,1.73-4.177,2.496-6.303c0.765-2.127,1.428-3.872,1.988-5.234
		c0.561-1.363,1.1-2.553,1.619-3.57c0.52-1.017,1.086-1.861,1.697-2.532s1.299-1.175,2.063-1.51
		c0.764-0.336,1.676-0.504,2.736-0.504c0.895,0,1.581,0.179,2.059,0.534c0.479,0.356,0.718,0.829,0.718,1.419l-2.837,17.726
		l0.457-0.025l7.597-17.517c0.244-0.569,0.772-1.073,1.587-1.511c0.813-0.438,1.779-0.656,2.898-0.656
		c1.159,0,2.094,0.239,2.807,0.717c0.712,0.479,1.068,1.094,1.068,1.846c0,0.57-0.098,1.18-0.291,1.831s-0.401,1.256-0.625,1.815
		s-0.438,1.037-0.641,1.434s-0.315,0.615-0.336,0.656c-0.447,0.813-0.91,1.77-1.388,2.868c-0.478,1.098-0.859,1.912-1.144,2.44
		c-0.347,0.61-0.652,1.18-0.916,1.708c0.285,0.794,0.65,1.506,1.099,2.136c0.386,0.529,0.864,1.018,1.434,1.465
		s1.251,0.671,2.044,0.671c0.672,0,1.444-0.178,2.319-0.533c0.874-0.356,1.698-0.758,2.472-1.205
		c0.914-0.509,1.85-1.088,2.807-1.739v7.36c-1.343,0.898-2.73,1.615-4.165,2.149c-1.434,0.535-2.812,0.803-4.134,0.803
		c-1.037,0-2.02-0.129-2.944-0.385c-0.926-0.257-1.739-0.662-2.44-1.218c-0.702-0.556-1.262-1.276-1.678-2.163
		c-0.418-0.887-0.637-1.961-0.656-3.222c-0.691,1.628-1.414,3.117-2.166,4.47c-0.754,1.353-1.525,2.518-2.319,3.493
		c-0.793,0.977-1.597,1.739-2.41,2.288c-0.813,0.55-1.628,0.824-2.44,0.824c-0.285,0-0.534-0.219-0.748-0.656
		c-0.213-0.437-0.392-1.026-0.533-1.77c-0.143-0.742-0.26-1.606-0.352-2.593s-0.163-2.029-0.213-3.128
		c-0.052-1.098-0.088-2.227-0.107-3.386c-0.021-1.16-0.03-2.289-0.03-3.387L193.746,39.234z"/>
	<path fill="#4AB19A" d="M238.659,47.808c-0.731,0.672-1.643,1.389-2.73,2.151c-1.089,0.763-2.263,1.465-3.524,2.105
		c-1.261,0.641-2.547,1.175-3.859,1.602c-1.312,0.427-2.558,0.641-3.736,0.641c-1.059,0-1.949-0.147-2.67-0.442
		c-0.723-0.295-1.308-0.706-1.755-1.235s-0.769-1.175-0.961-1.938c-0.193-0.763-0.29-1.602-0.29-2.518
		c0-1.281,0.143-2.776,0.428-4.484c0.586-3.534,0.963-5.52,1.131-5.956c0.276-0.868,0.831-2.793,1.662-5.773
		c0.772-2.429,1.249-4.011,1.431-4.743c0.1-0.515,0.38-0.978,0.84-1.389c0.419-0.37,0.894-0.674,1.423-0.91
		c0.53-0.236,1.08-0.411,1.649-0.524s1.084-0.17,1.544-0.17c0.839,0,1.408,0.158,1.708,0.474s0.45,0.737,0.45,1.266
		c0,0.448-0.105,1.08-0.313,1.897c-0.209,0.816-0.447,1.748-0.714,2.793c-0.268,1.045-0.664,2.389-1.188,4.031
		c-0.524,1.644-0.883,3.044-1.074,4.203c-0.192,1.159-0.435,2.311-0.727,3.454c-0.293,1.144-0.439,2.184-0.439,3.118
		c0,0.915,0.102,1.642,0.305,2.181s0.621,0.809,1.252,0.809c0.732,0,1.545-0.255,2.44-0.764c0.895-0.508,1.8-1.123,2.716-1.846
		c0.914-0.722,1.81-1.469,2.685-2.242c0.874-0.772,1.647-1.434,2.318-1.983V47.808z M225.022,15.79c0-0.472,0.102-1.006,0.305-1.601
		c0.203-0.596,0.534-1.155,0.992-1.679c0.457-0.523,1.067-0.965,1.83-1.324c0.764-0.359,1.713-0.539,2.854-0.539
		c0.711,0,1.383,0.082,2.014,0.246c0.629,0.164,1.179,0.416,1.646,0.755c0.469,0.338,0.84,0.785,1.114,1.339
		c0.274,0.555,0.411,1.212,0.411,1.972c0,0.698-0.111,1.375-0.335,2.032s-0.579,1.242-1.067,1.755
		c-0.488,0.514-1.104,0.93-1.846,1.248c-0.744,0.318-1.633,0.478-2.67,0.478c-1.791,0-3.112-0.426-3.967-1.278
		C225.449,18.341,225.022,17.207,225.022,15.79z"/>
	<path fill="#4AB19A" d="M232.618,54.307c0-0.322,0.071-0.891,0.216-1.706s0.337-1.802,0.577-2.96
		c0.24-1.157,0.479-2.448,0.716-3.873c0.237-1.424,0.48-2.884,0.729-4.379c0.249-1.494,0.519-3.1,0.809-4.815
		c0.291-1.716,0.59-3.223,0.9-4.521c0.311-1.297,0.625-2.445,0.943-3.447c0.32-1.001,0.635-1.776,0.944-2.329
		c0.271-0.469,0.59-0.837,0.958-1.103c0.367-0.266,0.77-0.46,1.205-0.582c0.436-0.123,0.891-0.199,1.365-0.23
		c0.473-0.03,0.943-0.046,1.408-0.046c0.711,0,1.225,0.214,1.54,0.641c0.315,0.428,0.474,0.875,0.474,1.343
		c0,0.244-0.057,0.631-0.168,1.159c-0.112,0.529-0.25,1.099-0.412,1.709c-0.163,0.61-0.326,1.189-0.488,1.739
		c-0.143,0.509-0.265,0.916-0.366,1.221l-1.708,5.584c1.139-0.184,2.236-0.311,3.295-0.382c1.057-0.07,2.217-0.203,3.478-0.396
		s2.685-0.519,4.271-0.977c1.587-0.457,3.478-1.175,5.675-2.151v5.858c-1.342,0.733-2.689,1.298-4.043,1.694
		c-1.353,0.396-2.578,0.687-3.676,0.869c-1.281,0.225-2.532,0.347-3.753,0.366c0.505,1.322,0.948,2.696,1.332,4.119
		c0.27,1.257,0.562,2.623,0.878,4.1c0.316,1.476,0.475,2.967,0.475,4.472c0,0.264-0.025,0.879-0.076,1.846
		c-0.051,0.966-0.173,2.1-0.365,3.401c-0.194,1.302-0.499,2.68-0.916,4.135c-0.417,1.454-0.986,2.786-1.709,3.996
		c-0.722,1.21-1.627,2.212-2.715,3.006c-1.088,0.793-2.416,1.189-3.981,1.189c-1.424,0-2.634-0.417-3.631-1.251
		s-1.806-2.044-2.425-3.631c-0.621-1.586-1.068-3.528-1.343-5.827S232.618,57.235,232.618,54.307z M239.391,15.79
		c0-0.472,0.102-1.006,0.306-1.601c0.203-0.596,0.534-1.155,0.991-1.679c0.458-0.523,1.068-0.965,1.831-1.324
		s1.714-0.539,2.853-0.539c0.712,0,1.383,0.082,2.014,0.246s1.18,0.416,1.647,0.755c0.468,0.338,0.839,0.785,1.114,1.339
		c0.273,0.555,0.412,1.212,0.412,1.972c0,0.698-0.113,1.375-0.336,2.032c-0.225,0.657-0.58,1.242-1.068,1.755
		c-0.488,0.514-1.104,0.93-1.846,1.248s-1.633,0.478-2.67,0.478c-1.789,0-3.111-0.426-3.966-1.278S239.391,17.207,239.391,15.79z
		 M241.323,40.665c-0.412,3.168-0.826,6.355-1.244,9.563c-0.418,3.208-0.626,6.52-0.626,9.937c0,1.119,0.071,2.05,0.214,2.792
		s0.32,1.343,0.533,1.8c0.215,0.458,0.428,0.783,0.641,0.977c0.215,0.193,0.402,0.29,0.564,0.29c0.672,0,1.206-0.366,1.603-1.1
		s0.69-1.64,0.885-2.719c0.192-1.079,0.315-2.245,0.366-3.497c0.051-1.253,0.076-2.398,0.076-3.437c0-0.591-0.034-1.258-0.104-2.001
		c-0.068-0.743-0.183-1.509-0.342-2.296c-0.16-0.788-0.322-1.585-0.485-2.393c-0.164-0.808-0.327-1.609-0.488-2.407
		C242.439,44.389,241.907,42.553,241.323,40.665z"/>
	<path fill="#4AB19A" d="M288.266,46.746c-0.469,0.658-1.094,1.43-1.877,2.313c-0.783,0.885-1.662,1.729-2.639,2.53
		c-0.977,0.803-2.024,1.481-3.143,2.036c-1.119,0.556-2.238,0.833-3.355,0.833c-1.352,0-2.479-0.428-3.381-1.283
		s-1.682-2.099-2.337-3.729c-0.493,0.563-1.098,1.137-1.815,1.721c-0.717,0.584-1.502,1.112-2.352,1.586
		c-0.852,0.473-1.738,0.86-2.661,1.162s-1.845,0.452-2.769,0.452c-0.976,0-1.927-0.199-2.852-0.6
		c-0.926-0.4-1.744-0.975-2.457-1.724c-0.711-0.749-1.281-1.662-1.708-2.739s-0.641-2.293-0.641-3.647
		c0-1.52,0.214-3.081,0.645-4.682c0.43-1.602,1.095-3.334,1.995-5.199c0.9-1.864,1.867-3.476,2.9-4.834
		c1.033-1.357,2.163-2.543,3.391-3.557c1.229-1.014,2.522-1.819,3.883-2.417c1.361-0.598,2.747-0.897,4.159-0.897
		c0.47,0,0.839,0.093,1.104,0.277c0.267,0.186,0.486,0.396,0.66,0.633c0.174,0.236,0.342,0.467,0.506,0.693
		c0.164,0.226,0.369,0.391,0.614,0.493s0.496,0.17,0.752,0.2c0.255,0.031,0.517,0.046,0.782,0.046c0.226,0,0.455-0.004,0.691-0.015
		c0.234-0.011,0.465-0.016,0.689-0.016c0.308,0,0.594,0.03,0.86,0.092c0.267,0.063,0.501,0.196,0.705,0.401
		c0.204,0.206,0.362,0.493,0.474,0.863s0.168,0.874,0.168,1.511c0,0.973-0.102,2.051-0.305,3.236
		c-0.204,1.185-0.438,2.399-0.699,3.643c-0.263,1.243-0.563,2.661-0.898,4.253c-0.335,1.592-0.503,2.934-0.503,4.023
		c0,0.933,0.087,1.661,0.259,2.187c0.174,0.525,0.545,0.788,1.114,0.788c0.427,0,0.874-0.105,1.343-0.317
		c0.467-0.212,0.94-0.488,1.418-0.831c0.479-0.343,0.956-0.731,1.435-1.165c0.478-0.434,0.931-0.883,1.357-1.347
		c0.997-1.088,2.003-2.318,3.021-3.689L288.266,46.746z M262.091,44.356c0,0.524,0.035,1.033,0.106,1.526
		c0.072,0.493,0.199,0.934,0.383,1.321s0.428,0.702,0.732,0.943c0.307,0.242,0.693,0.362,1.162,0.362
		c0.754,0,1.436-0.327,2.047-0.983c0.611-0.654,1.142-1.443,1.59-2.364c0.448-0.922,0.811-1.874,1.085-2.856
		c0.274-0.983,0.453-1.803,0.534-2.458l2.275-9.918c-0.834,0-1.646,0.206-2.439,0.62c-0.794,0.413-1.541,0.973-2.243,1.678
		c-0.702,0.706-1.348,1.513-1.938,2.42s-1.17,2.026-1.739,3.357s-0.971,2.5-1.205,3.508
		C262.207,42.521,262.091,43.469,262.091,44.356z"/>
	<path fill="#4AB19A" d="M297.756,54.825l0.672-3.688c-1.099,0.967-2.242,1.746-3.433,2.341c-1.189,0.594-2.345,0.89-3.463,0.89
		c-0.976,0-1.927-0.198-2.853-0.595s-1.744-0.966-2.456-1.708s-1.281-1.647-1.708-2.716c-0.428-1.067-0.641-2.272-0.641-3.615
		c0-1.77,0.121-3.392,0.365-4.866c0.244-1.474,0.545-3.294,0.902-5.46c0.357-2.167,0.779-3.876,1.268-5.127s1.047-2.517,1.678-3.799
		c0.467-0.915,1.139-1.611,2.013-2.09c0.874-0.478,1.728-0.717,2.562-0.717c0.711,0,1.322,0.179,1.83,0.534
		c0.508,0.356,0.763,0.911,0.763,1.664c0,0.224-0.025,0.468-0.075,0.732s-0.135,0.55-0.254,0.854
		c-0.359,0.937-0.663,2.05-0.91,3.339s-0.576,3.009-0.988,5.158s-0.738,3.854-0.98,5.113c-0.241,1.26-0.361,2.383-0.361,3.369
		c0,0.514,0.035,1.013,0.106,1.495c0.071,0.483,0.198,0.915,0.382,1.296c0.183,0.38,0.426,0.688,0.731,0.925
		s0.691,0.354,1.159,0.354c0.752,0,1.434-0.327,2.045-0.983c0.609-0.655,1.139-1.443,1.586-2.365s0.809-1.875,1.083-2.857
		c0.274-0.983,0.452-1.803,0.534-2.459l2.444-11.41c0.143-0.671,0.428-1.281,0.856-1.83c0.406-0.529,0.886-0.981,1.436-1.358
		c0.551-0.376,1.121-0.656,1.712-0.839c0.591-0.184,1.15-0.274,1.681-0.274c0.631,0,1.16,0.138,1.589,0.412
		c0.428,0.275,0.642,0.708,0.642,1.298c0,0.184-0.03,0.397-0.092,0.642c-0.095,0.542-0.223,1.269-0.381,2.181
		c-0.16,0.913-0.342,1.951-0.545,3.114s-0.487,2.794-0.852,4.894c-0.365,2.099-0.662,3.787-0.89,5.064
		c-0.515,3.02-1.04,6.264-1.575,9.731c0.617-0.345,1.283-0.771,1.998-1.28c0.715-0.508,1.51-1.188,2.385-2.042
		c0.873-0.854,1.85-1.926,2.928-3.216c1.078-1.291,2.289-2.901,3.631-4.832l1.465,6.79c-0.366,0.626-0.834,1.263-1.403,1.909
		c-0.61,0.687-1.261,1.354-1.952,2c-1.018,0.93-1.75,1.556-2.197,1.879c-0.143,0.101-0.885,0.685-2.227,1.752
		c-0.408,0.346-1.754,1.281-4.041,2.806c-0.557,0.366-0.938,1.032-1.143,1.998c-0.207,0.966-0.443,2.761-0.711,5.383
		c-0.117,0.749-0.189,1.325-0.219,1.729c-0.124,0.972-0.242,1.897-0.353,2.777c-0.112,0.88-0.31,1.885-0.593,3.014
		c-0.284,1.129-0.619,2.167-1.006,3.113c-0.385,0.946-0.893,1.887-1.521,2.823c-0.63,0.936-1.325,1.734-2.086,2.396
		c-0.762,0.66-1.68,1.194-2.756,1.602s-2.254,0.61-3.532,0.61c-1.036,0-1.995-0.116-2.878-0.351
		c-0.883-0.233-1.689-0.594-2.42-1.081c-0.73-0.488-1.33-1.154-1.797-1.997s-0.741-1.834-0.822-2.972
		c-0.163-2.153,0.428-4.429,1.77-6.826c0.752-1.342,1.281-2.271,1.587-2.789c0.305-0.519,0.782-1.265,1.434-2.24
		c0.651-0.955,1.332-1.818,2.044-2.591c1.424-1.605,2.599-2.896,3.524-3.87C295.371,56.988,296.475,55.942,297.756,54.825z
		 M297.865,62.18c-1.427,1.018-2.833,2.645-4.219,4.882c-1.386,2.236-2.485,4.514-3.301,6.833c-0.673,1.952-0.338,2.929,1.005,2.929
		c0.488,0,0.926-0.062,1.312-0.184s0.743-0.341,1.067-0.656c0.326-0.315,0.611-0.661,0.855-1.037s0.503-0.905,0.777-1.586
		c0.275-0.682,0.519-1.354,0.732-2.014c0.213-0.661,0.482-1.541,0.809-2.64c0.184-0.59,0.318-1.247,0.407-1.971
		c0.089-0.725,0.194-1.595,0.318-2.609C297.751,63.11,297.83,62.461,297.865,62.18z"/>
	<path fill="#4AB19A" d="M347.454,46.746c-0.468,0.658-1.093,1.43-1.876,2.313c-0.783,0.885-1.663,1.729-2.639,2.53
		c-0.977,0.803-2.025,1.481-3.143,2.036c-1.119,0.556-2.238,0.833-3.356,0.833c-1.351,0-2.478-0.428-3.38-1.283
		s-1.682-2.099-2.338-3.729c-0.492,0.563-1.098,1.137-1.814,1.721c-0.718,0.584-1.502,1.112-2.353,1.586
		c-0.851,0.473-1.737,0.86-2.661,1.162c-0.922,0.302-1.845,0.452-2.768,0.452c-0.977,0-1.928-0.199-2.853-0.6
		c-0.926-0.4-1.744-0.975-2.456-1.724s-1.281-1.662-1.709-2.739c-0.427-1.077-0.641-2.293-0.641-3.647
		c0-1.52,0.215-3.081,0.645-4.682c0.43-1.602,1.096-3.334,1.996-5.199c0.899-1.864,1.866-3.476,2.9-4.834
		c1.032-1.357,2.162-2.543,3.391-3.557c1.228-1.014,2.521-1.819,3.883-2.417c1.36-0.598,2.746-0.897,4.158-0.897
		c0.471,0,0.84,0.093,1.105,0.277c0.266,0.186,0.486,0.396,0.66,0.633c0.173,0.236,0.342,0.467,0.506,0.693
		c0.164,0.226,0.368,0.391,0.613,0.493c0.246,0.103,0.496,0.17,0.752,0.2c0.256,0.031,0.518,0.046,0.783,0.046
		c0.225,0,0.455-0.004,0.69-0.015s0.466-0.016,0.69-0.016c0.307,0,0.594,0.03,0.859,0.092c0.267,0.063,0.502,0.196,0.705,0.401
		c0.205,0.206,0.362,0.493,0.475,0.863c0.111,0.37,0.168,0.874,0.168,1.511c0,0.973-0.103,2.051-0.306,3.236
		c-0.204,1.185-0.437,2.399-0.698,3.643c-0.264,1.243-0.563,2.661-0.898,4.253s-0.504,2.934-0.504,4.023
		c0,0.933,0.087,1.661,0.26,2.187s0.544,0.788,1.113,0.788c0.428,0,0.875-0.105,1.343-0.317s0.94-0.488,1.419-0.831
		c0.478-0.343,0.955-0.731,1.434-1.165s0.931-0.883,1.357-1.347c0.997-1.088,2.004-2.318,3.021-3.689L347.454,46.746z
		 M321.28,44.356c0,0.524,0.035,1.033,0.107,1.526c0.071,0.493,0.199,0.934,0.383,1.321c0.183,0.388,0.427,0.702,0.732,0.943
		c0.306,0.242,0.693,0.362,1.161,0.362c0.754,0,1.437-0.327,2.048-0.983c0.611-0.654,1.141-1.443,1.59-2.364
		c0.447-0.922,0.81-1.874,1.084-2.856c0.275-0.983,0.453-1.803,0.535-2.458l2.275-9.918c-0.834,0-1.647,0.206-2.44,0.62
		c-0.794,0.413-1.541,0.973-2.243,1.678c-0.701,0.706-1.348,1.513-1.938,2.42s-1.17,2.026-1.738,3.357
		c-0.57,1.331-0.972,2.5-1.205,3.508C321.397,42.521,321.28,43.469,321.28,44.356z"/>
</g>
</svg>
