<?xml version="1.0" encoding="utf-8"?>
<!-- Generator: Adobe Illustrator 16.0.0, SVG Export Plug-In . SVG Version: 6.00 Build 0)  -->
<!DOCTYPE svg PUBLIC "-//W3C//DTD SVG 1.1//EN" "http://www.w3.org/Graphics/SVG/1.1/DTD/svg11.dtd">
<svg version="1.1" id="Layer_1" xmlns="http://www.w3.org/2000/svg" xmlns:xlink="http://www.w3.org/1999/xlink" x="0px" y="0px"
	 width="800px" height="300px" viewBox="0 0 800 300" enable-background="new 0 0 800 300" xml:space="preserve">
<g>
	<path fill="#3E9C87" d="M532.047,174.941c0.994-3.648,1.531-7.483,1.531-11.445c0-24.033-19.479-43.515-43.512-43.515
		c-2.303,0-4.564,0.182-6.771,0.527c-5.256-22.797-25.662-39.8-50.055-39.8c-24.426,0-44.855,17.046-50.079,39.888
		c-10.586,1.852-19.74,7.841-25.742,16.244c-2.456-0.244-4.946-0.374-7.466-0.374c-41.227,0-74.645,33.42-74.645,74.646
		c0,41.227,33.418,74.646,74.645,74.646c16.068,0,30.937-5.093,43.117-13.73c7.243,13.244,21.305,22.231,37.467,22.231
		c12.49,0,23.725-5.367,31.531-13.918c11.014,9.142,25.16,14.642,40.596,14.642c35.133,0,63.617-28.484,63.617-63.618
		C566.283,206.829,552.387,185.556,532.047,174.941z"/>
	<g>
		
			<linearGradient id="SVGID_1_" gradientUnits="userSpaceOnUse" x1="319.2644" y1="250.2559" x2="332.5183" y2="250.2559" gradientTransform="matrix(1 0 0 -1 114.9448 499.7246)">
			<stop  offset="0" style="stop-color:#E0EBE8"/>
			<stop  offset="1" style="stop-color:#FFFFFF"/>
		</linearGradient>
		<rect x="434.209" y="219.927" fill="url(#SVGID_1_)" width="13.254" height="59.085"/>
		
			<linearGradient id="SVGID_2_" gradientUnits="userSpaceOnUse" x1="284.0256" y1="253.8535" x2="302.9617" y2="253.8535" gradientTransform="matrix(1 0 0 -1 114.9448 499.7246)">
			<stop  offset="0" style="stop-color:#E0EBE8"/>
			<stop  offset="1" style="stop-color:#FFFFFF"/>
		</linearGradient>
		<rect x="398.97" y="191.521" fill="url(#SVGID_2_)" width="18.936" height="108.7"/>
		
			<linearGradient id="SVGID_3_" gradientUnits="userSpaceOnUse" x1="254.468" y1="250.2559" x2="267.7229" y2="250.2559" gradientTransform="matrix(1 0 0 -1 114.9448 499.7246)">
			<stop  offset="0" style="stop-color:#E0EBE8"/>
			<stop  offset="1" style="stop-color:#FFFFFF"/>
		</linearGradient>
		<rect x="369.413" y="219.927" fill="url(#SVGID_3_)" width="13.255" height="59.085"/>
		<g>
			<path fill="#FF7F07" d="M384.862,196.633l12.877-14.271l-5.302-51.631l-1.138,1.894c0,0-9.657,10.227-7.763,25.377
				C385.43,173.152,384.862,196.633,384.862,196.633z"/>
			<path fill="#FF7F07" d="M432.014,196.633l-12.877-14.271l5.303-51.631l1.137,1.894c0,0,9.658,10.227,7.764,25.377
				C431.446,173.152,432.014,196.633,432.014,196.633z"/>
		</g>
		<g>
			
				<linearGradient id="SVGID_4_" gradientUnits="userSpaceOnUse" x1="293.4939" y1="280.7393" x2="293.4939" y2="355.0114" gradientTransform="matrix(1 0 0 -1 114.9448 499.7246)">
				<stop  offset="0" style="stop-color:#F37020"/>
				<stop  offset="1" style="stop-color:#FFB339"/>
			</linearGradient>
			<path fill="url(#SVGID_4_)" d="M408.44,12.185c0,0-24.147,35.98-23.388,69.31c0.757,33.329,11.686,112.109,11.686,112.109h11.703
				h11.699c0,0,10.93-78.78,11.688-112.109C432.584,48.165,408.44,12.185,408.44,12.185z"/>
			<g>
				
					<linearGradient id="SVGID_5_" gradientUnits="userSpaceOnUse" x1="261.0935" y1="280.7422" x2="261.0935" y2="355.013" gradientTransform="matrix(1 0 0 -1 114.9448 499.7246)">
					<stop  offset="0" style="stop-color:#F37020"/>
					<stop  offset="1" style="stop-color:#FFB339"/>
				</linearGradient>
				<path fill="url(#SVGID_5_)" d="M376.04,141.359c0,0-13.278,15.902-12.862,30.631c0.417,14.73,4.721,49.546,4.721,49.546h8.14
					h8.139c0,0,4.307-34.815,4.723-49.544C389.318,157.262,376.04,141.359,376.04,141.359z"/>
			</g>
			<g>
				
					<linearGradient id="SVGID_6_" gradientUnits="userSpaceOnUse" x1="325.8914" y1="280.7422" x2="325.8914" y2="355.013" gradientTransform="matrix(1 0 0 -1 114.9448 499.7246)">
					<stop  offset="0" style="stop-color:#F37020"/>
					<stop  offset="1" style="stop-color:#FFB339"/>
				</linearGradient>
				<path fill="url(#SVGID_6_)" d="M440.838,141.359c0,0-13.281,15.902-12.863,30.631c0.416,14.73,4.721,49.546,4.721,49.546h8.141
					h8.139c0,0,4.305-34.815,4.723-49.544C454.115,157.262,440.838,141.359,440.838,141.359z"/>
			</g>
		</g>
		<circle fill="#FFFFFF" cx="408.44" cy="76.098" r="7.102"/>
		<path fill="#FFFFFF" d="M421.778,181.407H395.1c0.044,0.322,0.085,0.645,0.126,0.956h26.424
			C421.692,182.052,421.735,181.729,421.778,181.407z"/>
		<path fill="#FFFFFF" d="M367.232,215.963h17.616c0.031-0.266,0.064-0.553,0.097-0.834h-17.811
			C367.167,215.41,367.201,215.697,367.232,215.963z"/>
		<path fill="#FFFFFF" d="M449.742,215.129H431.93c0.033,0.281,0.068,0.568,0.1,0.834h17.613
			C449.676,215.697,449.709,215.41,449.742,215.129z"/>
	</g>
	<path fill="#FFFFFF" d="M675.065,246.813c0.799-3.729,1.229-7.597,1.229-11.565c0-30.382-24.629-55.01-55.01-55.01
		c-3.311,0-6.547,0.308-9.697,0.867c-10.205-15.106-27.486-25.038-47.088-25.038c-30.416,0-55.244,23.915-56.713,53.969
		c-20.295,2.044-36.137,19.175-36.137,40.007c0,0.798,0.031,1.587,0.076,2.372c-4.887-1.539-10.082-2.372-15.475-2.372
		c-28.42,0-51.461,23.042-51.461,51.462c0,28.424,23.041,51.462,51.461,51.462c22.658,0,41.881-14.647,48.754-34.985
		c10.242,10.885,26.986,17.985,45.924,17.985c10.854,0,20.988-2.337,29.598-6.375c10.744,20.894,32.502,35.197,57.617,35.197
		c35.771,0,64.77-29.001,64.77-64.772C702.912,277.973,691.891,258.513,675.065,246.813z"/>
	<path fill="#4AB19A" d="M364.67,247.417c0.199-1.439,0.309-2.908,0.309-4.404c0-17.618-14.282-31.901-31.899-31.901
		c-2.685,0-5.292,0.336-7.783,0.96c0.004-0.32,0.022-0.637,0.022-0.96c0-35.236-28.566-63.803-63.804-63.803
		c-30.929,0-56.713,22.01-62.557,51.221c-24.571,1.471-44.182,21.314-45.281,45.981c-32.31,6.727-56.588,35.355-56.588,69.663
		c0,39.3,31.858,71.159,71.16,71.159c38.35,0,69.598-30.341,71.088-68.327c3.118,0.894,6.423,1.376,9.854,1.376
		c2.603,0,5.134-0.286,7.568-0.81c6.357,10.637,16.807,18.54,29.177,21.539c8.894,29.482,36.25,50.957,68.631,50.957
		c39.59,0,71.688-32.094,71.688-71.687C426.254,282.222,399.473,252.33,364.67,247.417z"/>
</g>
</svg>
